<svg xmlns="http://www.w3.org/2000/svg" viewBox="0 0 62.07 61.96">
  <g id="Capa_2" data-name="Capa 2">
    <g id="Layer_1" data-name="Layer 1">
      <g id="A8vWm9">
        <g>
          <path d="M62.07,19.72a2.18,2.18,0,0,1-2.34,1.41c-2.89,0-5.78,0-8.67,0h-.78V37.89l-3.64-.82V21.16c-.3,0-.54,0-.77,0H37.08c-1.64,0-2.28-.64-2.28-2.26v-9a1.88,1.88,0,0,1,2.11-2.13h23A2.07,2.07,0,0,1,62.07,9.2Z" style="fill: #ff2317"/>
          <path d="M0,7.14A2.4,2.4,0,0,1,2.46,5.81c6.12,0,12.24,0,18.36,0,1.65,0,2.3.66,2.31,2.32V18.79c0,1.7-.64,2.33-2.36,2.33h-7.4v.77c0,4.94,0,9.88,0,14.81a.86.86,0,0,1-.67,1,31.69,31.69,0,0,0-3,1.49V21.12H8.27c-2,0-4,0-5.93,0A2.16,2.16,0,0,1,0,19.72Z" style="fill: #ff2317"/>
          <path d="M22.79,62a2.21,2.21,0,0,1-1.36-2.48,9.65,9.65,0,0,1,8.19-8.81l.84-.14A5.05,5.05,0,0,1,27,48.42a4.73,4.73,0,0,1-.72-3.86,4.87,4.87,0,0,1,9.57.63c.28,2.51-1.21,4.45-4,5.29a28.86,28.86,0,0,1,2.88.84,9.57,9.57,0,0,1,5.88,8.76A2,2,0,0,1,39.28,62Z"/>
          <path d="M7.15,62C5.88,61.34,5.71,60.29,5.89,59a9.67,9.67,0,0,1,7.48-8.24c.45-.1.91-.15,1.54-.25a5.07,5.07,0,0,1-3.43-2.05,4.76,4.76,0,0,1-.79-3.8,4.87,4.87,0,0,1,9.58.38c.33,2.62-1.13,4.57-4.21,5.5A10.18,10.18,0,0,1,20.56,52c-2.07,3-3.3,6.23-2.5,9.94Z"/>
          <path d="M44,62c.78-3.69-.4-6.9-2.47-9.93a10,10,0,0,1,4.38-1.5,5.13,5.13,0,0,1-3.28-2.06,4.74,4.74,0,0,1-.79-3.74,4.87,4.87,0,0,1,9.61.51c.3,2.45-1.27,4.46-4,5.24a21.65,21.65,0,0,1,2.82.82,9.34,9.34,0,0,1,5.9,8.05,2.14,2.14,0,0,1-.59,2.15,5.4,5.4,0,0,1-.77.46Z"/>
          <path d="M46.62,4.14H37a5.47,5.47,0,0,0-5.81,5.8c0,2,0,4.07,0,6.11,0,1.66,0,3.32.08,5a20.17,20.17,0,0,1-2.45,0,1.72,1.72,0,0,1-1.4-1.86c0-1.69,0-3.39,0-5.08v-12A1.86,1.86,0,0,1,29.51,0h15a1.84,1.84,0,0,1,2.07,2C46.64,2.67,46.62,3.35,46.62,4.14Z" style="fill: #ff2317"/>
          <path d="M39.66,35a10.33,10.33,0,0,1,5.41,2.31,8.71,8.71,0,0,0-6.25,4.92,8.75,8.75,0,0,0-6.22-4.92A10.57,10.57,0,0,1,37.89,35a5.2,5.2,0,0,1-3.18-2.24A4.81,4.81,0,0,1,34.09,29a4.88,4.88,0,0,1,9.51.25C44.11,31.71,42.89,33.54,39.66,35Z"/>
          <path d="M24.15,35a10.76,10.76,0,0,1,5.34,2.35,8.74,8.74,0,0,0-6.26,4.92A8.73,8.73,0,0,0,17,37.33a7.23,7.23,0,0,1,2.51-1.55c.9-.33,1.83-.57,2.78-.86a5,5,0,0,1-3.43-2.6A4.7,4.7,0,0,1,18.5,29a4.8,4.8,0,0,1,5.15-3.74,4.85,4.85,0,0,1,4.43,4.38C28.4,32,26.91,34,24.15,35Z"/>
        </g>
      </g>
    </g>
  </g>
</svg>
