<svg xmlns="http://www.w3.org/2000/svg" xmlns:xlink="http://www.w3.org/1999/xlink" viewBox="0 0 182.77 182.77"><defs><style>.cls-1{fill:url(#Degradado_sin_nombre_125);}.cls-2{fill:#adfced;}</style><linearGradient id="Degradado_sin_nombre_125" x1="91.38" y1="182.77" x2="91.38" gradientUnits="userSpaceOnUse"><stop offset="0" stop-color="#000b13"/><stop offset="0.61" stop-color="#14394b"/><stop offset="1" stop-color="#6e384f"/></linearGradient></defs><g id="Capa_2" data-name="Capa 2"><g id="Capa_1-2" data-name="Capa 1"><circle class="cls-1" cx="91.38" cy="91.38" r="91.38"/><path class="cls-2" d="M137.85,111.21V89a23.87,23.87,0,0,0-17.14-22.86,15.11,15.11,0,0,0-2.85-6.88,13.81,13.81,0,0,0-3.41-14,14,14,0,0,0-2.06-1.7,21.61,21.61,0,0,0-40,0,14,14,0,0,0-2.06,1.7,13.82,13.82,0,0,0-3.42,14,15.11,15.11,0,0,0-2.85,6.88A23.87,23.87,0,0,0,46.92,89v12.27a12.77,12.77,0,0,0,3.54,8.83,16.51,16.51,0,0,0-13.29,16.17v12.1a2.16,2.16,0,0,0,2.16,2.16h65a2.16,2.16,0,0,0,0-4.32H84.79v-9.94A12.19,12.19,0,0,1,97,114.08h9.19a8.08,8.08,0,0,0,15.76,0h9.18a12.19,12.19,0,0,1,12.18,12.17v9.94H123.74a2.16,2.16,0,0,0,0,4.32h21.69a2.16,2.16,0,0,0,2.16-2.16v-12.1a16.51,16.51,0,0,0-9.74-15ZM71,61.09a2.16,2.16,0,0,0,.38-2.29,9.52,9.52,0,0,1,2-10.53,9.8,9.8,0,0,1,1.87-1.46,2.16,2.16,0,0,0,.92-1.1,17.29,17.29,0,0,1,32.45,0,2.11,2.11,0,0,0,.92,1.1,9.8,9.8,0,0,1,1.87,1.46,9.52,9.52,0,0,1,2,10.53,2.16,2.16,0,0,0,.38,2.29,10.79,10.79,0,0,1,2.31,4.17c-.69-.06-1.38-.09-2.08-.09a23.63,23.63,0,0,0-9.78,2.1,13.83,13.83,0,0,0,2-7.26v-6.6a2.16,2.16,0,0,0-2.16-2.16H97a5.52,5.52,0,0,1-5.52-5.51,2.16,2.16,0,1,0-4.31,0,9.82,9.82,0,0,0,.84,4,4.67,4.67,0,0,1-3.46,1.53H80.61a2.16,2.16,0,0,0-2.15,2.16V60a13.83,13.83,0,0,0,2.05,7.26,23.7,23.7,0,0,0-9.78-2.1c-.7,0-1.4,0-2.09.09A10.81,10.81,0,0,1,71,61.09Zm13.56-5.53a9,9,0,0,0,6.07-2.35A9.82,9.82,0,0,0,97,55.56h5V60a9.61,9.61,0,0,1-19.22,0V55.56Zm7.86,18.37A14,14,0,0,0,96,73.45a23.74,23.74,0,0,0-3.62,5.63,24,24,0,0,0-3.61-5.63,13.85,13.85,0,0,0,3.61.48ZM51.23,89a19.5,19.5,0,1,1,39,0v12.27a8.52,8.52,0,0,1-8.52,8.51h-2.9v-3.1a14,14,0,0,0,5.93-11.43V88.59a2.16,2.16,0,0,0-2.16-2.16H75.34a5.57,5.57,0,0,1-5.56-5.57,2.16,2.16,0,0,0-4.32,0,9.82,9.82,0,0,0,.86,4,4.75,4.75,0,0,1-3.5,1.55H58.88a2.16,2.16,0,0,0-2.16,2.16v6.64a14,14,0,0,0,5.93,11.43v3.1h-2.9a8.52,8.52,0,0,1-8.52-8.51V89ZM61,90.74h1.78a9.09,9.09,0,0,0,6.11-2.37,9.81,9.81,0,0,0,6.41,2.37h5.08v4.49a9.69,9.69,0,1,1-19.38,0Zm5.92,18a13.93,13.93,0,0,0,7.54,0v3.57a3.77,3.77,0,1,1-7.54,0Zm13.52,17.53v9.94h-39v-9.94a12.18,12.18,0,0,1,12.17-12.17h9.19a8.08,8.08,0,0,0,15.76,0h7.25A16.44,16.44,0,0,0,80.48,126.25Zm23.86-35.51h5.08a9.84,9.84,0,0,0,6.42-2.37A9.05,9.05,0,0,0,122,90.74h1.78v4.49a9.7,9.7,0,1,1-19.39,0Zm9.7,25.32a3.77,3.77,0,0,1-3.77-3.77v-3.57a13.89,13.89,0,0,0,7.53,0v3.57A3.77,3.77,0,0,1,114,116.06Zm8.08-6.3v-3.1A14,14,0,0,0,128,95.23V88.59a2.16,2.16,0,0,0-2.16-2.16H122a4.74,4.74,0,0,1-3.5-1.55,9.82,9.82,0,0,0,.85-4,2.16,2.16,0,0,0-4.31,0,5.58,5.58,0,0,1-5.57,5.57h-7.23A2.16,2.16,0,0,0,100,88.59v6.64A14,14,0,0,0,106,106.66v3.1H94.54V89a19.5,19.5,0,1,1,39,0v20.78Z"/><path class="cls-2" d="M114,136.19a2.18,2.18,0,0,0-1.52.63,2.2,2.2,0,0,0-.63,1.53,2.16,2.16,0,0,0,.63,1.52,2.14,2.14,0,0,0,3,0,2.16,2.16,0,0,0,.63-1.52,2.15,2.15,0,0,0-2.16-2.16Z"/></g></g></svg>