<svg xmlns="http://www.w3.org/2000/svg" viewBox="0 0 626.34 218.87"><defs><style>.cls-1{fill:#fff;}.cls-2{fill:#2affd8;}</style></defs><g id="Capa_2" data-name="Capa 2"><g id="Capa_1-2" data-name="Capa 1"><path class="cls-1" d="M2.43.29H21.34V9.75H14V26.06h7.35v9.46H14V57.66h7.35v9.46H2.43Z"/><path class="cls-1" d="M56.56,12.84V23.76H45v-9.7a9.85,9.85,0,0,0-.37-3.33c-.24-.59-.85-.88-1.83-.88-1.41,0-2.11,1.26-2.11,3.77v6.32a13.58,13.58,0,0,0,.37,3.63,3.59,3.59,0,0,0,1.74,2.1Q49.66,29.89,52,31.5a10.87,10.87,0,0,1,3.46,3.73,13,13,0,0,1,1.12,6v15q0,6.38-2.77,8.8T43.7,67.51q-7.41,0-10.84-2.15t-3.44-8.19V39.73H41v16c0,1.67.71,2.5,2.11,2.5S45,57.4,45,55.8V45.27a28.06,28.06,0,0,0-.27-4.66A5.62,5.62,0,0,0,43.4,38a15.2,15.2,0,0,0-3.24-2.65c-1.46-.94-3.56-2.22-6.32-3.82a8.65,8.65,0,0,1-4.42-7.84V10.24c0-4.41,1.2-7.15,3.58-8.23S39,.39,43.8.39a21.73,21.73,0,0,1,7.31,1,7.2,7.2,0,0,1,4.1,3.7A17.67,17.67,0,0,1,56.56,12.84Z"/><path class="cls-1" d="M64.65.29H83.56V9.75H76.21V26.06h7.35v9.46H76.21V57.66h7.35v9.46H64.65Z"/><path class="cls-1" d="M91.79.2H103l6.72,32.28V.2h10V67.12H108.5l-6.67-31.6v31.6h-10Z"/><path class="cls-1" d="M143.85,67.22H138.2a13.2,13.2,0,0,1-6-1.18,6.88,6.88,0,0,1-3.32-3.55,16.41,16.41,0,0,1-1-6.3V12.74a22.43,22.43,0,0,1,1-7.52,6.83,6.83,0,0,1,3.78-4A20.46,20.46,0,0,1,140.71,0h4.9c3.54,0,6.06,1.06,7.58,3.18s2.29,5.41,2.29,9.85V23.76H144V13.33a8.34,8.34,0,0,0-.39-3.07A1.59,1.59,0,0,0,142,9.41q-2.55,0-2.55,3.82V54.58a4.67,4.67,0,0,0,.49,2.47,1.91,1.91,0,0,0,1.76.76c.82,0,1.33-.24,1.55-.73a7,7,0,0,0,.31-2.5V39h11.57V57.37c0,3.33-.86,5.81-2.58,7.42S147.9,67.22,143.85,67.22Z"/><path class="cls-1" d="M163.51.2h11.86V67.12H163.51Z"/><path class="cls-1" d="M181.39,67.12,187.32.2h15.73l6.22,66.92H199l-1.37-14.06h-4.75l-1.28,14.06Zm16-23.47-1.91-27.19-2,27.19Z"/><path class="cls-1" d="M215.3.2h11.85V57.66h6.91v9.46H215.3Z"/><path class="cls-1" d="M240.82.29h18.91V9.75h-7.35V26.06h7.35v9.46h-7.35V57.66h7.35v9.46H240.82Z"/><path class="cls-1" d="M295,12.84V23.76H283.4v-9.7a10.12,10.12,0,0,0-.37-3.33c-.25-.59-.86-.88-1.84-.88-1.41,0-2.11,1.26-2.11,3.77v6.32a14,14,0,0,0,.37,3.63,3.63,3.63,0,0,0,1.74,2.1q6.85,4.21,9.19,5.83a10.74,10.74,0,0,1,3.45,3.73,13,13,0,0,1,1.13,6v15q0,6.38-2.78,8.8c-1.84,1.61-5.21,2.42-10.08,2.42s-8.56-.72-10.85-2.15-3.43-4.17-3.43-8.19V39.73h11.56v16c0,1.67.7,2.5,2.1,2.5s1.92-.8,1.92-2.4V45.27a28.06,28.06,0,0,0-.27-4.66A5.81,5.81,0,0,0,281.8,38a15.56,15.56,0,0,0-3.25-2.65c-1.45-.94-3.56-2.22-6.31-3.82a8.63,8.63,0,0,1-4.42-7.84V10.24q0-6.61,3.58-8.23T282.2.39a21.77,21.77,0,0,1,7.31,1,7.23,7.23,0,0,1,4.1,3.7A17.67,17.67,0,0,1,295,12.84Z"/><path class="cls-1" d="M303,55.7h8.33q1.47,3.44,2,5a12.48,12.48,0,0,1,.51,3.82,2.62,2.62,0,0,1-.71,1.84,2.33,2.33,0,0,1-1.79.76H303Z"/><path class="cls-2" d="M0,94.34V86.1H19.26v8.24H14.47v47.75H4.8V94.34Z"/><path class="cls-2" d="M24.31,142.09v-56H39.92a7.19,7.19,0,0,1,5.48,2.19,8.86,8.86,0,0,1,2.07,6.29v12.26a14.62,14.62,0,0,1-.38,3.81,3.94,3.94,0,0,1-1,1.89,20.62,20.62,0,0,1-2.41,1.68,6.19,6.19,0,0,1,3,2.5,8.06,8.06,0,0,1,.81,3.89v21.48H37.55V122.46a11.79,11.79,0,0,0-.35-3.59c-.23-.59-.9-.88-2-.88h-1v24.1Zm11-48.2H34.23V110.2h1.05a2,2,0,0,0,2.27-2.3V96.1A2,2,0,0,0,35.28,93.89Z"/><path class="cls-2" d="M52.51,142.09l5-56H70.62l5.21,56H67.26l-1.14-11.76h-4l-1.07,11.76Zm13.36-19.63-1.6-22.75-1.68,22.75Z"/><path class="cls-2" d="M80.83,142.09v-56H95.2a10.39,10.39,0,0,1,4.54.92,6.71,6.71,0,0,1,2.94,2.71,8.81,8.81,0,0,1,1,4.44v12a6.89,6.89,0,0,1-.9,3.75,6,6,0,0,1-3.11,2.24,9.15,9.15,0,0,1,3,2.17,6.06,6.06,0,0,1,1,3.93V132.7q0,4.85-1.76,7.11t-5.79,2.28ZM94,105.16V97.08c0-1.34-.2-2.16-.59-2.46a5.87,5.87,0,0,0-2.94-.45v14a4.53,4.53,0,0,0,2.83-.61A3.18,3.18,0,0,0,94,105.16Zm0,26.6V119.09a5.5,5.5,0,0,0-.29-2.19,1,1,0,0,0-.84-.61q-.56-.06-2.4-.15V134.3a6.14,6.14,0,0,0,2.73-.43C93.76,133.58,94,132.88,94,131.76Z"/><path class="cls-2" d="M108.74,142.09l5-56h13.16l5.21,56H123.5l-1.15-11.76h-4l-1.07,11.76Zm13.37-19.63-1.6-22.75-1.68,22.75Z"/><path class="cls-2" d="M148.26,86.1h9.92v43.65a38.91,38.91,0,0,1-.53,7.26,6.37,6.37,0,0,1-2.4,4c-1.25.93-3.15,1.4-5.72,1.4h-5a9.19,9.19,0,0,1-5.13-1.36,6.12,6.12,0,0,1-2.76-3.32,22.55,22.55,0,0,1-.6-6.14V119.42h8.73v12.91a3.84,3.84,0,0,0,.47,2,1.46,1.46,0,0,0,1.3.76c1.17,0,1.76-1.23,1.76-3.69Z"/><path class="cls-2" d="M163.14,142.09l5-56h13.15l5.21,56h-8.57l-1.14-11.76h-4l-1.07,11.76Zm13.36-19.63-1.6-22.75-1.68,22.75Z"/><path class="cls-2" d="M191.46,142.09V86h12.85a15.06,15.06,0,0,1,6.06,1,6.11,6.11,0,0,1,3.16,3.07,13.4,13.4,0,0,1,1,5.58v35.78a25.78,25.78,0,0,1-.58,6.31,5,5,0,0,1-2.56,3.26,13.36,13.36,0,0,1-6.18,1.09ZM202.8,94.25h-1.67v40.13h1.34a2.54,2.54,0,0,0,1.32-.37,1.16,1.16,0,0,0,.67-.9c0-.16.09-.5.2-1a6.07,6.07,0,0,0,.16-1.15V97.78a6.58,6.58,0,0,0-.4-2.66A1.61,1.61,0,0,0,202.8,94.25Z"/><path class="cls-2" d="M221.18,132V96.67a28.55,28.55,0,0,1,.47-5.67,6.33,6.33,0,0,1,2.28-3.69c1.2-1,3.07-1.46,5.58-1.46h6A9.34,9.34,0,0,1,241,87.18a6.1,6.1,0,0,1,2.38,3.61,26,26,0,0,1,.56,6V132a22.71,22.71,0,0,1-.66,6.21,5.41,5.41,0,0,1-2.61,3.28,12.08,12.08,0,0,1-5.72,1.08h-6.41Q221.18,142.58,221.18,132Zm13.11,0V96.51c0-2-.58-3-1.76-3s-1.68,1-1.68,2.87v35.82a4.9,4.9,0,0,0,.29,1.91c.19.42.65.63,1.39.63s1.22-.21,1.44-.63A4.84,4.84,0,0,0,234.29,132Z"/><path class="cls-2" d="M250.61,142.09v-56h15.62a7.19,7.19,0,0,1,5.47,2.19,8.82,8.82,0,0,1,2.07,6.29v12.26a15.15,15.15,0,0,1-.37,3.81,4,4,0,0,1-1,1.89,20.62,20.62,0,0,1-2.41,1.68,6.22,6.22,0,0,1,3,2.5,8.19,8.19,0,0,1,.8,3.89v21.48h-9.92V122.46a11.79,11.79,0,0,0-.35-3.59c-.23-.59-.89-.88-2-.88h-1v24.1Zm11-48.2h-1.05V110.2h1.05a2,2,0,0,0,2.27-2.3V96.1A2,2,0,0,0,261.58,93.89Z"/><path class="cls-2" d="M278.81,142.09l5-56h13.16l5.2,56h-8.56l-1.15-11.76h-4l-1.06,11.76Zm13.36-19.63-1.6-22.75-1.68,22.75Z"/><path class="cls-2" d="M329.84,96.67v9.14h-9.67V97.7a8.21,8.21,0,0,0-.31-2.79c-.2-.49-.72-.74-1.54-.74-1.17,0-1.76,1.06-1.76,3.16v5.29a11.28,11.28,0,0,0,.31,3,3,3,0,0,0,1.45,1.76q5.74,3.53,7.69,4.88a9,9,0,0,1,2.89,3.12,10.84,10.84,0,0,1,.94,5V133c0,3.55-.77,6-2.32,7.36s-4.36,2-8.44,2-7.16-.6-9.07-1.81-2.88-3.48-2.88-6.84V119.18h9.68v13.36c0,1.39.58,2.09,1.76,2.09s1.6-.67,1.6-2v-8.81a23.47,23.47,0,0,0-.23-3.9,4.69,4.69,0,0,0-1.11-2.21,12.9,12.9,0,0,0-2.71-2.21q-1.83-1.18-5.29-3.2a7.24,7.24,0,0,1-3.7-6.56V94.5c0-3.69,1-6,3-6.89s5-1.35,9-1.35a18.24,18.24,0,0,1,6.12.84,6,6,0,0,1,3.43,3.1A14.84,14.84,0,0,1,329.84,96.67Z"/><path class="cls-2" d="M356,142.09V86h12.85a15.06,15.06,0,0,1,6.06,1,6.08,6.08,0,0,1,3.16,3.07,13.4,13.4,0,0,1,1,5.58v35.78a25.78,25.78,0,0,1-.58,6.31,5,5,0,0,1-2.56,3.26,13.36,13.36,0,0,1-6.18,1.09Zm11.34-47.84h-1.66v40.13H367a2.54,2.54,0,0,0,1.32-.37,1.16,1.16,0,0,0,.67-.9c0-.16.09-.5.2-1a6.07,6.07,0,0,0,.16-1.15V97.78a6.58,6.58,0,0,0-.4-2.66A1.61,1.61,0,0,0,367.33,94.25Z"/><path class="cls-2" d="M385.71,132V96.67a28.55,28.55,0,0,1,.47-5.67,6.33,6.33,0,0,1,2.28-3.69c1.2-1,3.07-1.46,5.58-1.46h6a9.32,9.32,0,0,1,5.48,1.33,6.05,6.05,0,0,1,2.38,3.61,26,26,0,0,1,.56,6V132a22.71,22.71,0,0,1-.66,6.21,5.41,5.41,0,0,1-2.61,3.28,12.08,12.08,0,0,1-5.72,1.08H393.1Q385.71,142.58,385.71,132Zm13.12,0V96.51q0-3-1.77-3c-1.12,0-1.68,1-1.68,2.87v35.82a4.9,4.9,0,0,0,.29,1.91c.19.42.66.63,1.39.63s1.22-.21,1.44-.63A4.81,4.81,0,0,0,398.83,132Z"/><path class="cls-2" d="M415.22,142.09v-56h13.36L431,112.37l2.87-26.27h13.24v56h-8.4V110.94l-4.51,31.15h-5.78l-4.8-30.74v30.74Z"/><path class="cls-2" d="M453.87,86.18H469.7v7.91h-6.15v13.65h6.15v7.91h-6.15v18.53h6.15v7.91H453.87Zm5.81-12.75h8.09L464,82.08H457.5Z"/><path class="cls-2" d="M499.17,96.67v9.14h-9.68V97.7a8.55,8.55,0,0,0-.3-2.79c-.21-.49-.72-.74-1.54-.74-1.18,0-1.76,1.06-1.76,3.16v5.29a11.78,11.78,0,0,0,.3,3,3.05,3.05,0,0,0,1.46,1.76c3.82,2.35,6.39,4,7.68,4.88a8.86,8.86,0,0,1,2.89,3.12,10.83,10.83,0,0,1,.95,5V133c0,3.55-.78,6-2.32,7.36s-4.36,2-8.44,2-7.16-.6-9.08-1.81-2.87-3.48-2.87-6.84V119.18h9.67v13.36c0,1.39.59,2.09,1.77,2.09s1.59-.67,1.59-2v-8.81a23.75,23.75,0,0,0-.22-3.9,4.69,4.69,0,0,0-1.11-2.21,13,13,0,0,0-2.72-2.21q-1.83-1.18-5.28-3.2a7.22,7.22,0,0,1-3.7-6.56V94.5c0-3.69,1-6,3-6.89s5-1.35,9-1.35a18.24,18.24,0,0,1,6.12.84A6,6,0,0,1,498,90.2,14.84,14.84,0,0,1,499.17,96.67Z"/><path class="cls-2" d="M504.17,94.34V86.1h19.26v8.24h-4.79v47.75H509V94.34Z"/><path class="cls-2" d="M528.47,86.1h9.92v56h-9.92Z"/><path class="cls-2" d="M558.54,142.17h-4.72a11.24,11.24,0,0,1-5.05-1,5.77,5.77,0,0,1-2.77-3,13.76,13.76,0,0,1-.84-5.27V96.59A18.77,18.77,0,0,1,546,90.3,5.7,5.7,0,0,1,549.16,87a17,17,0,0,1,6.76-1H560c3,0,5.07.89,6.35,2.67s1.9,4.52,1.9,8.24v9h-9.63V97.08a6.83,6.83,0,0,0-.33-2.56A1.32,1.32,0,0,0,557,93.8c-1.42,0-2.13,1.07-2.13,3.2v34.6a4,4,0,0,0,.41,2.07,1.62,1.62,0,0,0,1.48.63c.68,0,1.11-.2,1.29-.61a6,6,0,0,0,.26-2.09V118.52H568v15.41q0,4.19-2.16,6.21C564.35,141.5,561.94,142.17,558.54,142.17Z"/><path class="cls-2" d="M573.32,142.09l5-56h13.15l5.21,56h-8.57l-1.14-11.76h-4l-1.07,11.76Zm13.36-19.63-1.6-22.75-1.68,22.75Z"/><path class="cls-2" d="M624.35,96.67v9.14h-9.68V97.7a8.55,8.55,0,0,0-.3-2.79c-.21-.49-.72-.74-1.54-.74-1.18,0-1.76,1.06-1.76,3.16v5.29a11.78,11.78,0,0,0,.3,3,3.05,3.05,0,0,0,1.46,1.76q5.74,3.53,7.69,4.88a9,9,0,0,1,2.89,3.12,11,11,0,0,1,.94,5V133c0,3.55-.78,6-2.32,7.36s-4.36,2-8.44,2-7.16-.6-9.08-1.81-2.87-3.48-2.87-6.84V119.18h9.67v13.36c0,1.39.59,2.09,1.77,2.09s1.59-.67,1.59-2v-8.81a23.75,23.75,0,0,0-.22-3.9,4.69,4.69,0,0,0-1.11-2.21,13.17,13.17,0,0,0-2.71-2.21q-1.85-1.18-5.29-3.2a7.22,7.22,0,0,1-3.7-6.56V94.5c0-3.69,1-6,3-6.89s5-1.35,9-1.35a18.24,18.24,0,0,1,6.12.84,6,6,0,0,1,3.43,3.1A14.84,14.84,0,0,1,624.35,96.67Z"/><path class="cls-1" d="M340.24,163h15.82v7.91h-6.15v13.65h6.15v7.91h-6.15V211h6.15v7.91H340.24Z"/><path class="cls-1" d="M363,162.88h9.38l5.62,27v-27h8.4v56h-9.42l-5.58-26.44v26.44H363Z"/><path class="cls-1" d="M412.54,218.87v-56h13.53a14.88,14.88,0,0,1,5.58.84,5.25,5.25,0,0,1,2.87,2.82,14.48,14.48,0,0,1,.86,5.56v19.63a8.66,8.66,0,0,1-1.56,5.62c-1,1.26-3,1.88-6,1.88h-5.37v19.64ZM426,188.74V173.62a3.27,3.27,0,0,0-.7-2.24,2.52,2.52,0,0,0-2-.8l-.45,0-.37.06v20.66h1.15C425.2,191.32,426,190.46,426,188.74Z"/><path class="cls-1" d="M438.41,218.87l5-56h13.16l5.2,56h-8.56L452,207.1h-4L447,218.87Zm13.36-19.64-1.6-22.75-1.68,22.75Z"/><path class="cls-1" d="M466.86,162.88h9.38l5.62,27v-27h8.4v56h-9.42l-5.58-26.44v26.44h-8.4Z"/><path class="cls-1" d="M496.94,218.87V162.79h12.85a15,15,0,0,1,6.06,1,6,6,0,0,1,3.16,3.07,13.37,13.37,0,0,1,1,5.58v35.78a25.84,25.84,0,0,1-.58,6.31,5,5,0,0,1-2.56,3.26,13.36,13.36,0,0,1-6.18,1.09ZM508.28,171h-1.66v40.13H508a2.54,2.54,0,0,0,1.32-.37,1.16,1.16,0,0,0,.67-.9c0-.16.09-.5.2-1a6.17,6.17,0,0,0,.16-1.15V174.56a6.67,6.67,0,0,0-.4-2.67A1.61,1.61,0,0,0,508.28,171Z"/><path class="cls-1" d="M526.74,163h15.82v7.91h-6.15v13.65h6.15v7.91h-6.15V211h6.15v7.91H526.74Z"/><path class="cls-1" d="M549.45,218.87v-56h13.36l2.42,26.27,2.87-26.27h13.24v56h-8.4V187.72l-4.51,31.15h-5.78l-4.8-30.74v30.74Z"/><path class="cls-1" d="M588.06,162.88H598v56h-9.92Z"/><path class="cls-1" d="M603,218.87l5-56h13.16l5.2,56h-8.56l-1.15-11.77h-4l-1.06,11.77Zm13.36-19.64-1.59-22.75-1.68,22.75Z"/></g></g></svg>