<?xml version="1.0" encoding="utf-8"?>
<!-- Generator: Adobe Illustrator 24.0.3, SVG Export Plug-In . SVG Version: 6.00 Build 0)  -->
<svg version="1.1" id="Layer_1" xmlns="http://www.w3.org/2000/svg" xmlns:xlink="http://www.w3.org/1999/xlink" x="0px" y="0px"
	 viewBox="0 0 200 200" style="enable-background:new 0 0 200 200;" xml:space="preserve">
<style type="text/css">
	.st0{fill:#E9EAEE;}
	.st1{fill:#9EB2B8;}
	.st2{fill:#879BA0;}
	.st3{fill:#9DCB3B;}
	.st4{fill:#85C241;}
	.st5{fill:#D2D4D8;}
	.st6{fill:#EA4856;}
	.st7{fill:#C87629;}
	.st8{fill:#A2DAF3;}
	.st9{fill:#8E4A20;}
	.st10{fill:#423841;}
</style>
<g id="XMLID_1445_">
	<g id="XMLID_1338_">
		<polygon id="XMLID_1363_" class="st0" points="85.91,136.61 85.91,185.15 22.23,185.15 22.23,136.61 54.25,105.55 		"/>
		<path id="XMLID_1362_" class="st1" d="M86.25,112.84v21.79l-10.84-10.32l-5.08-4.84v-6.63c0-1.29,1.04-2.33,2.33-2.33h11.25
			C85.2,110.51,86.25,111.55,86.25,112.84z"/>
		<path id="XMLID_1361_" class="st2" d="M75.41,110.51v13.8l-5.08-4.84v-6.63c0-1.29,1.04-2.33,2.33-2.33L75.41,110.51L75.41,110.51
			z"/>
		<g id="XMLID_1358_">
			<path id="XMLID_1360_" class="st3" d="M95.56,177.68v7.48H57.12v-7.48c0-1.49,1.21-2.69,2.7-2.69h33.05
				C94.36,174.98,95.56,176.19,95.56,177.68z"/>
			<path id="XMLID_1359_" class="st3" d="M26.05,177.68v7.48H12.57v-7.48c0-1.49,1.21-2.69,2.69-2.69h8.09
				C24.85,174.98,26.05,176.19,26.05,177.68z"/>
		</g>
		<g id="XMLID_1355_">
			<path id="XMLID_1357_" class="st4" d="M95.56,180.22v4.94H57.12v-4.94c0-1.49,1.21-2.69,2.7-2.69h33.05
				C94.36,177.52,95.56,178.73,95.56,180.22z"/>
			<path id="XMLID_1356_" class="st4" d="M26.05,180.22v4.94H12.57v-4.94c0-1.49,1.21-2.69,2.69-2.69h8.09
				C24.85,177.52,26.05,178.73,26.05,180.22z"/>
		</g>
		<polygon id="XMLID_1354_" class="st5" points="85.91,138.52 85.91,147.59 54.07,117.19 22.23,147.59 22.23,138.52 51.54,110.6 
			54.07,108.25 56.6,110.6 		"/>
		<polygon id="XMLID_1353_" class="st6" points="54.07,112.14 17.82,146.75 12.75,142.5 51.54,105.55 54.07,103.2 56.6,105.55 
			95.39,142.5 90.32,146.75 		"/>
		<rect id="XMLID_1352_" x="30.02" y="148.78" class="st7" width="21" height="36.37"/>
		<rect id="XMLID_1351_" x="57.12" y="148.78" class="st8" width="23.92" height="21"/>
		<rect id="XMLID_1350_" x="57.12" y="148.78" class="st7" width="23.92" height="6.38"/>
		<path id="XMLID_1349_" class="st9" d="M46.88,168.12h-3.05c-0.7,0-1.27-0.57-1.27-1.27c0-0.7,0.57-1.27,1.27-1.27h3.05
			c0.7,0,1.27,0.57,1.27,1.27C48.15,167.55,47.58,168.12,46.88,168.12z"/>
		<circle id="XMLID_1348_" class="st10" cx="54.07" cy="132.56" r="5.84"/>
		<g id="XMLID_1342_">
			<path id="XMLID_1347_" class="st9" d="M51.02,147.51h-21c-0.7,0-1.27,0.57-1.27,1.27v36.37h2.54v-35.1h18.46v35.1h2.54v-36.37
				C52.29,148.08,51.72,147.51,51.02,147.51z"/>
			<path id="XMLID_1343_" class="st9" d="M81.03,147.51H57.12c-0.7,0-1.27,0.57-1.27,1.27v21c0,0.7,0.57,1.27,1.27,1.27h23.92
				c0.7,0,1.27-0.57,1.27-1.27v-21C82.3,148.08,81.73,147.51,81.03,147.51z M79.76,150.05v3.84H58.39v-3.84H79.76z M58.39,168.52
				v-12.08h21.37v12.08H58.39z"/>
		</g>
		<path id="XMLID_1339_" class="st6" d="M54.07,139.67c-3.92,0-7.11-3.19-7.11-7.11s3.19-7.11,7.11-7.11s7.11,3.19,7.11,7.11
			C61.18,136.48,57.99,139.67,54.07,139.67z M54.07,127.98c-2.52,0-4.57,2.05-4.57,4.57c0,2.52,2.05,4.57,4.57,4.57
			s4.57-2.05,4.57-4.57C58.64,130.04,56.59,127.98,54.07,127.98z"/>
	</g>
	<g id="XMLID_1367_">
		<polygon id="XMLID_1392_" class="st0" points="177.56,136.61 177.56,185.15 113.88,185.15 113.88,136.61 145.9,105.55 		"/>
		<path id="XMLID_1391_" class="st1" d="M177.9,112.84v21.79l-10.84-10.32l-5.08-4.84v-6.63c0-1.29,1.04-2.33,2.33-2.33h11.25
			C176.85,110.51,177.9,111.55,177.9,112.84z"/>
		<path id="XMLID_1390_" class="st2" d="M167.06,110.51v13.8l-5.08-4.84v-6.63c0-1.29,1.04-2.33,2.33-2.33L167.06,110.51
			L167.06,110.51z"/>
		<g id="XMLID_1387_">
			<path id="XMLID_1389_" class="st3" d="M187.21,177.68v7.48h-38.45v-7.48c0-1.49,1.21-2.69,2.7-2.69h33.05
				C186,174.98,187.21,176.19,187.21,177.68z"/>
			<path id="XMLID_1388_" class="st3" d="M117.7,177.68v7.48h-13.48v-7.48c0-1.49,1.21-2.69,2.69-2.69H115
				C116.49,174.98,117.7,176.19,117.7,177.68z"/>
		</g>
		<g id="XMLID_1384_">
			<path id="XMLID_1386_" class="st4" d="M187.21,180.22v4.94h-38.45v-4.94c0-1.49,1.21-2.69,2.7-2.69h33.05
				C186,177.52,187.21,178.73,187.21,180.22z"/>
			<path id="XMLID_1385_" class="st4" d="M117.7,180.22v4.94h-13.48v-4.94c0-1.49,1.21-2.69,2.69-2.69H115
				C116.49,177.52,117.7,178.73,117.7,180.22z"/>
		</g>
		<polygon id="XMLID_1383_" class="st5" points="177.56,138.52 177.56,147.59 145.72,117.19 113.88,147.59 113.88,138.52 
			143.19,110.6 145.72,108.25 148.24,110.6 		"/>
		<polygon id="XMLID_1382_" class="st6" points="145.72,112.14 109.46,146.75 104.4,142.5 143.19,105.55 145.72,103.2 
			148.24,105.55 187.04,142.5 181.97,146.75 		"/>
		<rect id="XMLID_1381_" x="121.67" y="148.78" class="st7" width="21" height="36.37"/>
		<rect id="XMLID_1380_" x="148.77" y="148.78" class="st8" width="23.92" height="21"/>
		<rect id="XMLID_1379_" x="148.77" y="148.78" class="st7" width="23.92" height="6.38"/>
		<path id="XMLID_1378_" class="st9" d="M138.53,168.12h-3.05c-0.7,0-1.27-0.57-1.27-1.27c0-0.7,0.57-1.27,1.27-1.27h3.05
			c0.7,0,1.27,0.57,1.27,1.27C139.8,167.55,139.23,168.12,138.53,168.12z"/>
		<circle id="XMLID_1377_" class="st10" cx="145.72" cy="132.56" r="5.84"/>
		<g id="XMLID_1371_">
			<path id="XMLID_1376_" class="st9" d="M142.67,147.51h-21c-0.7,0-1.27,0.57-1.27,1.27v36.37h2.54v-35.1h18.46v35.1h2.54v-36.37
				C143.94,148.08,143.37,147.51,142.67,147.51z"/>
			<path id="XMLID_1372_" class="st9" d="M172.68,147.51h-23.92c-0.7,0-1.27,0.57-1.27,1.27v21c0,0.7,0.57,1.27,1.27,1.27h23.92
				c0.7,0,1.27-0.57,1.27-1.27v-21C173.95,148.08,173.38,147.51,172.68,147.51z M171.41,150.05v3.84h-21.37v-3.84H171.41z
				 M150.04,168.52v-12.08h21.37v12.08H150.04z"/>
		</g>
		<path id="XMLID_1368_" class="st6" d="M145.72,139.67c-3.92,0-7.11-3.19-7.11-7.11s3.19-7.11,7.11-7.11s7.11,3.19,7.11,7.11
			C152.83,136.48,149.64,139.67,145.72,139.67z M145.72,127.98c-2.52,0-4.57,2.05-4.57,4.57c0,2.52,2.05,4.57,4.57,4.57
			s4.57-2.05,4.57-4.57C150.29,130.04,148.24,127.98,145.72,127.98z"/>
	</g>
	<g id="XMLID_1419_">
		<polygon id="XMLID_1444_" class="st0" points="85.91,44.96 85.91,93.5 22.23,93.5 22.23,44.96 54.25,13.9 		"/>
		<path id="XMLID_1443_" class="st1" d="M86.25,21.19v21.79L75.41,32.66l-5.08-4.84v-6.63c0-1.29,1.04-2.33,2.33-2.33h11.25
			C85.2,18.86,86.25,19.9,86.25,21.19z"/>
		<path id="XMLID_1442_" class="st2" d="M75.41,18.86v13.8l-5.08-4.84v-6.63c0-1.29,1.04-2.33,2.33-2.33L75.41,18.86L75.41,18.86z"
			/>
		<g id="XMLID_1439_">
			<path id="XMLID_1441_" class="st3" d="M95.56,86.03v7.48H57.12v-7.48c0-1.49,1.21-2.69,2.7-2.69h33.05
				C94.36,83.33,95.56,84.54,95.56,86.03z"/>
			<path id="XMLID_1440_" class="st3" d="M26.05,86.03v7.48H12.57v-7.48c0-1.49,1.21-2.69,2.69-2.69h8.09
				C24.85,83.33,26.05,84.54,26.05,86.03z"/>
		</g>
		<g id="XMLID_1436_">
			<path id="XMLID_1438_" class="st4" d="M95.56,88.57v4.94H57.12v-4.94c0-1.49,1.21-2.69,2.7-2.69h33.05
				C94.36,85.87,95.56,87.08,95.56,88.57z"/>
			<path id="XMLID_1437_" class="st4" d="M26.05,88.57v4.94H12.57v-4.94c0-1.49,1.21-2.69,2.69-2.69h8.09
				C24.85,85.87,26.05,87.08,26.05,88.57z"/>
		</g>
		<polygon id="XMLID_1435_" class="st5" points="85.91,46.87 85.91,55.94 54.07,25.54 22.23,55.94 22.23,46.87 51.54,18.95 
			54.07,16.6 56.6,18.95 		"/>
		<polygon id="XMLID_1434_" class="st6" points="54.07,20.49 17.82,55.1 12.75,50.85 51.54,13.9 54.07,11.55 56.6,13.9 95.39,50.85 
			90.32,55.1 		"/>
		<rect id="XMLID_1433_" x="30.02" y="57.14" class="st7" width="21" height="36.37"/>
		<rect id="XMLID_1432_" x="57.12" y="57.14" class="st8" width="23.92" height="21"/>
		<rect id="XMLID_1431_" x="57.12" y="57.14" class="st7" width="23.92" height="6.38"/>
		<path id="XMLID_1430_" class="st9" d="M46.88,76.47h-3.05c-0.7,0-1.27-0.57-1.27-1.27c0-0.7,0.57-1.27,1.27-1.27h3.05
			c0.7,0,1.27,0.57,1.27,1.27C48.15,75.9,47.58,76.47,46.88,76.47z"/>
		<circle id="XMLID_1429_" class="st10" cx="54.07" cy="40.91" r="5.84"/>
		<g id="XMLID_1423_">
			<path id="XMLID_1428_" class="st9" d="M51.02,55.87h-21c-0.7,0-1.27,0.57-1.27,1.27V93.5h2.54v-35.1h18.46v35.1h2.54V57.14
				C52.29,56.43,51.72,55.87,51.02,55.87z"/>
			<path id="XMLID_1424_" class="st9" d="M81.03,55.87H57.12c-0.7,0-1.27,0.57-1.27,1.27v21c0,0.7,0.57,1.27,1.27,1.27h23.92
				c0.7,0,1.27-0.57,1.27-1.27v-21C82.3,56.43,81.73,55.87,81.03,55.87z M79.76,58.41v3.84H58.39v-3.84H79.76z M58.39,76.87V64.79
				h21.37v12.08H58.39z"/>
		</g>
		<path id="XMLID_1420_" class="st6" d="M54.07,48.02c-3.92,0-7.11-3.19-7.11-7.11s3.19-7.11,7.11-7.11s7.11,3.19,7.11,7.11
			C61.18,44.83,57.99,48.02,54.07,48.02z M54.07,36.34c-2.52,0-4.57,2.05-4.57,4.57c0,2.52,2.05,4.57,4.57,4.57s4.57-2.05,4.57-4.57
			C58.64,38.39,56.59,36.34,54.07,36.34z"/>
	</g>
	<g id="XMLID_1393_">
		<polygon id="XMLID_1418_" class="st0" points="177.56,44.96 177.56,93.5 113.88,93.5 113.88,44.96 145.9,13.9 		"/>
		<path id="XMLID_1417_" class="st1" d="M177.9,21.19v21.79l-10.84-10.32l-5.08-4.84v-6.63c0-1.29,1.04-2.33,2.33-2.33h11.25
			C176.85,18.86,177.9,19.9,177.9,21.19z"/>
		<path id="XMLID_1416_" class="st2" d="M167.06,18.86v13.8l-5.08-4.84v-6.63c0-1.29,1.04-2.33,2.33-2.33L167.06,18.86L167.06,18.86
			z"/>
		<g id="XMLID_1413_">
			<path id="XMLID_1415_" class="st3" d="M187.21,86.03v7.48h-38.45v-7.48c0-1.49,1.21-2.69,2.7-2.69h33.05
				C186,83.33,187.21,84.54,187.21,86.03z"/>
			<path id="XMLID_1414_" class="st3" d="M117.7,86.03v7.48h-13.48v-7.48c0-1.49,1.21-2.69,2.69-2.69H115
				C116.49,83.33,117.7,84.54,117.7,86.03z"/>
		</g>
		<g id="XMLID_1410_">
			<path id="XMLID_1412_" class="st4" d="M187.21,88.57v4.94h-38.45v-4.94c0-1.49,1.21-2.69,2.7-2.69h33.05
				C186,85.87,187.21,87.08,187.21,88.57z"/>
			<path id="XMLID_1411_" class="st4" d="M117.7,88.57v4.94h-13.48v-4.94c0-1.49,1.21-2.69,2.69-2.69H115
				C116.49,85.87,117.7,87.08,117.7,88.57z"/>
		</g>
		<polygon id="XMLID_1409_" class="st5" points="177.56,46.87 177.56,55.94 145.72,25.54 113.88,55.94 113.88,46.87 143.19,18.95 
			145.72,16.6 148.24,18.95 		"/>
		<polygon id="XMLID_1408_" class="st6" points="145.72,20.49 109.46,55.1 104.4,50.85 143.19,13.9 145.72,11.55 148.24,13.9 
			187.04,50.85 181.97,55.1 		"/>
		<rect id="XMLID_1407_" x="121.67" y="57.14" class="st7" width="21" height="36.37"/>
		<rect id="XMLID_1406_" x="148.77" y="57.14" class="st8" width="23.92" height="21"/>
		<rect id="XMLID_1405_" x="148.77" y="57.14" class="st7" width="23.92" height="6.38"/>
		<path id="XMLID_1404_" class="st9" d="M138.53,76.47h-3.05c-0.7,0-1.27-0.57-1.27-1.27c0-0.7,0.57-1.27,1.27-1.27h3.05
			c0.7,0,1.27,0.57,1.27,1.27C139.8,75.9,139.23,76.47,138.53,76.47z"/>
		<circle id="XMLID_1403_" class="st10" cx="145.72" cy="40.91" r="5.84"/>
		<g id="XMLID_1397_">
			<path id="XMLID_1402_" class="st9" d="M142.67,55.87h-21c-0.7,0-1.27,0.57-1.27,1.27V93.5h2.54v-35.1h18.46v35.1h2.54V57.14
				C143.94,56.43,143.37,55.87,142.67,55.87z"/>
			<path id="XMLID_1398_" class="st9" d="M172.68,55.87h-23.92c-0.7,0-1.27,0.57-1.27,1.27v21c0,0.7,0.57,1.27,1.27,1.27h23.92
				c0.7,0,1.27-0.57,1.27-1.27v-21C173.95,56.43,173.38,55.87,172.68,55.87z M171.41,58.41v3.84h-21.37v-3.84H171.41z M150.04,76.87
				V64.79h21.37v12.08H150.04z"/>
		</g>
		<path id="XMLID_1394_" class="st6" d="M145.72,48.02c-3.92,0-7.11-3.19-7.11-7.11s3.19-7.11,7.11-7.11s7.11,3.19,7.11,7.11
			C152.83,44.83,149.64,48.02,145.72,48.02z M145.72,36.34c-2.52,0-4.57,2.05-4.57,4.57c0,2.52,2.05,4.57,4.57,4.57
			s4.57-2.05,4.57-4.57C150.29,38.39,148.24,36.34,145.72,36.34z"/>
	</g>
</g>
</svg>
